<svg xmlns="http://www.w3.org/2000/svg"
     width="392"
     height="376"
     fill="none"
     viewBox="0 0 392 376">
  <path stroke="#FEFEFE"
        stroke-linecap="round"
        stroke-width="24"
        d="M52.904 23.213c11.202 0 18.426 8.604 29.627 8.604h35.187c6.499 0 12.288 1.368 18.669 2.191 10.232 1.32 20.589 2.31 30.885 2.882 5.533.307 11.126 1.413 16.64 1.502 5.587.09 11.273-.01 16.802.893 13.951 2.277 27.828 5.051 41.843 6.453 8.612.86 17.123 2.881 25.812 2.881 4.832 0 9.525.035 14.327.568 7.576.842 15.299-.394 22.89.325 7.781.737 16.067 2.76 23.864 2.76 1.426 0 10.522-2.598 11.972-2.598 1.718 0-10.621 1.062-11.972 0-6.04-4.745-12.891-8.136-19.035-12.743-8.085-6.064-20.039-12.07-30.073-13.718-14.988-2.46-30.165-4.088-45.131-6.737-8.863-1.569-17.209-4.383-26.299-4.383-8.398 0-16.874-.37-25.243.365-16.513 1.448-33.088 1.131-49.636 1.867-15.343.682-29.883 4.43-44.846 7.265-8.934 1.692-16.704 5.529-25.081 8.766-3.848 1.486-4.317 10.48-7.712 12.419-6.068 3.468-15.144.047-20.048 4.951-2.158 2.158 9.405 4.85 10.957 5.276 13.5 3.702 28.693 2.192 42.533 2.192 11.188 0 21.865.808 32.955 1.502 14.064.878 27.702 4.529 41.64 5.965 33.859 3.491 67.713 7.143 101.828 7.143 21.673 0 42.816 6.706 63.84 10.958 10.185 2.06 21.105 3.653 31.494 3.653 1.1 0 5.22-.005 4.992-.081-7.453-2.484-14.337-10.686-20.739-15.098-18.768-12.935-38.521-16.714-60.228-21.348-11.646-2.486-22.975-3.614-34.7-5.438-8.12-1.263-16.305-2.583-24.473-3.49-10.362-1.151-20.972-4.952-31.445-4.952-10.492 0-20.522 3.307-30.974 4.384-10.13 1.043-20.062 3.861-30.033 5.844-13.458 2.676-27.591 5.174-40.342 10.39-8.46 3.461-17.584 6.357-25.73 10.43-6.954 3.477-15.691 5.557-23.296 6.94-4.11.747-8.73 3.49-12.5 5.276-1.072.507-2.706 1.299-3.896 1.299-3.381 0 6.601-1.462 9.902-2.192 9.627-2.127 19.477-2.958 29.18-4.708 8.831-1.592 17.953-4.3 26.909-4.748 13.202-.66 26.596-.04 39.813-.04 11.481 0 22.567-2.192 34.051-2.192 7.286 0 15.367.974 22.565-.163 10.311-1.628 20.609-3.49 31.088-3.49 3.104 0 6.24-.114 9.335.162 5.085.454 9.428 3.264 14.123 5.033 7.824 2.948 16.116 4.478 24.432 5.032 9.069.605 18.269 1.406 27.355 1.462 9.851.06 19.818-.493 29.627.568 8.184.885 17.189.711 24.31 5.641.705.488 5.906 4.303 4.667 5.317-1.249 1.022-6.252.162-7.914.162-4.807 0-9.472-.28-14.245-.893-13.538-1.74-28.815-5.28-41.194-11.16C268.546 61.11 246.983 47.29 220.52 43.1c-13.086-2.072-26.164-1.786-39.368-1.786-10.092 0-19.995-.35-29.951 1.46-1.298.237-11.898 2.56-9.375 4.83 3.621 3.26 8.65 4.922 13.271 5.966 17.258 3.902 34.987 5.541 52.598 6.737 23.426 1.592 46.188 3.621 68.751 10.39 13.029 3.909 26.047 7.483 39.124 11.161 8.505 2.392 17.428 3.618 25.852 6.21 1.2.369 16.653 12.708 14.164 12.784-19.087.578-47.158-14.314-65.747-17.736-26.75-4.923-54.209-4.25-81.251-6.331-15.137-1.164-30.359-1.136-45.536-1.136-10.431 0-21.279-.903-31.657.04-15.196 1.382-31.068 3.58-45.942 7.103-12.627 2.99-25.134 7.655-37.622 10.43-1.745.388-3.699 1.321-5.479 1.42-2.37.132-3.571 0 .122 0 18.778 0 37.443 3.653 56.21 3.653 25.333 0 51.581 2.031 76.665-1.786 13.581-2.066 28.525-.406 42.249-.406 11.401 0 22.72 1.633 34.01 3.085 9.537 1.226 18.454 4.445 27.841 6.25 10.503 2.02 21.508 4.956 31.697 8.198 9.78 3.112 20.347 3.626 30.357 5.52 6.426 1.215 14.742 2.229 20.82 4.545 2.398.913 1.283.545-.405-.243-4.363-2.036-8.332-4.744-12.582-7.062-13.622-7.431-27.59-11.153-42.452-15.544-10.115-2.989-19.565-6.722-29.14-11.161-7.401-3.431-14.472-7.917-22.443-9.984-6.833-1.771-14.145-2.016-21.064-3.49-8.367-1.783-16.235-3.787-24.756-4.79-12.225-1.438-25.44-.162-37.744-.162-10.399 0-19.933 1.006-30.074 3.288-10.227 2.301-20.655 4.485-30.154 9.09-9.766 4.736-20.434 7.458-30.114 12.298-8.615 4.307-18.043 5.568-27.03 8.563-1.324.442-30.131 9.125-30.114 9.132 8.628 3.451 41.95-3.214 50.894-3.815 26.149-1.758 52.5-1.869 78.653-.528 28.529 1.464 58.023-.44 86.202 5.074a595.54 595.54 0 0 1 42.209 9.862c9.823 2.679 19.388 6.633 28.085 11.891 4.678 2.829 9.955 4.027 14.529 6.737 3.962 2.348 52.533 7.472 56.177 9.497.277.154-48.75-13.976-50.414-15.503-3.975-3.648-8.676-9.042-14.245-10.025-7.278-1.284-14.702-1.635-22.038-2.8-10.877-1.728-21.555-3.75-32.63-3.815-24.084-.142-48.202-.281-72.282.04-19.954.266-39.4 4.027-59.213 5.804-12.875 1.155-25.748 2.715-38.637 3.653-10.394.756-20.689 3.271-31.088 3.612-11.018.361-21.7.246-32.63 1.461-3.318.368-13.322.771-9.984.771 7.036 0 13.058-2.005 19.805-3.815 4.708-1.263 7.089-3.101 12.054-2.719 9.578.737 19.17 4.653 28.044 7.954 14.94 5.559 30.316 8.226 46.105 9.863 28.976 3.003 58.092.186 87.095-.893 12.977-.483 25.999-.438 38.961-1.258 8.992-.57 18.449-1.125 27.314.73 13.038 2.729 25.527 7.353 38.758 9.294 9.849 1.444 20.245 2.914 29.79 5.641 3.607 1.031-7.297-1.902-10.715-3.449-6.538-2.96-12.968-6.017-19.521-8.929-7.771-3.454-16.01-6.243-24.067-8.929-7.365-2.455-14.242-5.65-21.835-7.467-14.481-3.468-29.004-6.25-43.912-6.25h-76.056c-8.541 0-15.844 1.201-24.23 2.151-10.33 1.169-19.912-.082-29.424 4.423-5.841 2.767-12.314 4.376-18.425 6.413-4.459 1.486-8.993 1.907-13.312 3.449-7.164 2.559-14.224 5.757-21.916 6.21-.992.058-6.698 3.811-6.412 4.383.825 1.651 6.05.731 7.548.731 5.117 0 10.088.269 15.139.69 8.374.697 17.352 2.232 25.73 2.232 12.561 0 25.558.712 37.866 3.328 5.741 1.22 11.422 2.949 17.33 3.206 9.947.432 19.997.04 29.952.04 22.497 0 44.909-1.461 67.411-1.461 25.422 0 49.334.753 73.54 9.132 4.868 1.685 9.912 2.628 14.854 4.018 6.044 1.7 11.627 4.712 17.614 6.575 5.727 1.781 23.431 4.843 17.451 4.383-15.142-1.165-29.733-7.684-44.724-10.228-9.421-1.598-19.002-3.974-28.572-4.342-8.985-.346-18.038-.041-27.03-.041-18.355 0-36.202-.637-54.464-2.191-11.775-1.002-23.253-3.648-34.985-4.952-10.607-1.178-21.319-.893-31.981-.893-11.764 0-23.953-.936-35.674.041-7.462.622-15.121 2.151-22.605 2.151-5.72 0-11.805.086-17.452.893-8.332 1.19-16.84 1.065-25.244 1.299-1.806.05-12.751 2.236-6.94 2.962 4.285.536 8.557 1.487 12.947 1.989 8.857 1.012 17.929.632 26.826 1.258 11.813.832 23.677 2.557 35.512 2.557 13.473 0 26.89.73 40.342.73 13.779 0 27.579-.73 41.396-.73 19.367 0 37.619 1.964 56.738 4.951 10.282 1.607 20.719 3.849 30.601 7.143 8.042 2.681 17.071 3.624 24.757 7.265 4.882 2.313 10.911 2.903 16.112 4.058 2.686.597 5.139 2.741 7.67 2.882 1.208.067 7.126 1.606 7.874 2.354.466.466-1.249.57-1.908.527-3.895-.251-7.744-.588-11.648-.73-15.232-.554-30.003-2.858-45.008-5.398-12.231-2.07-24.641-3.8-36.973-4.748-8.095-.623-16.366-.612-24.432-1.664-8.97-1.17-17.617-2.76-26.705-2.76h-50.082c-12.635 0-26.067-1.328-38.596.365-8.29 1.121-16.933.494-25.284 1.137-6.425.494-13.124 1.81-19.319 3.449-7.497 1.985-14.815 4.294-21.956 7.468-.549.244-3.88 1.774-1.502 1.299 4.117-.824 8.239-2.03 12.46-2.03h15.868c7.271 0 14.414-1.381 21.673-1.461 17.726-.194 35.286-3.029 53.004-3.815 22.768-1.009 45.252-2.029 68.061-2.029 26.258 0 50.26 6.737 74.554 16.234 5.711 2.233 11.059 5.099 16.68 7.508 3.594 1.54 7.403 2.523 10.918 4.181 5.71 2.693 12.863 5.405 19.156 6.412 5.908.945 11.363 3.787 17.411 4.424.234.024 23.742 3.174 23.742 2.719 0-.37-25.359-6.761-26.299-7.305-10.429-6.038-22.055-11.303-33.442-15.179-5.582-1.9-11.948-2.024-17.736-2.963-10.216-1.657-20.294-3.192-30.641-3.774-20.659-1.162-41.204-1.299-61.892-1.299-23.451 0-47.969-1.35-70.902 4.383-8.09 2.023-16.301 3.295-24.432 5.114-8.525 1.907-16.422 6.016-25.122 7.305-6.461.957-13.34 2.508-19.684 4.018-2.124.506-4.72 1.096-6.9 1.096-.725 0-4.221.646-2.029.73 14.746.568 29.452.731 44.238.731 28.575 0 56.904.356 85.431 1.826 35.523 1.831 70.972 9.132 106.535 9.132 14.769 0 30.312-1.558 44.928.365 3.413.449 6.775.176 10.187.365 2.108.118 10.277 9.687 7.67 9.091-5.318-1.215-18.587-10.362-23.904-11.607-9.309-2.179-18.431-7.612-27.233-11.364-17.537-7.475-37.413-14.53-56.656-15.3-21.833-.873-43.721-1.231-65.545-2.395-16.631-.887-33.513-1.298-50.163-1.298-19.732 0-38.81-.459-58.036 4.748-9.164 2.482-35.83 8.476-30.601 23.58 2.577 7.445 19.461 5.276 24.757 5.276 20.622 0 41.05-3.653 61.729-3.653 27.31 0 54.367-1.57 81.617 1.096 12.924 1.264 25.878 1.915 38.799 3.287 11.077 1.177 21.885 3.549 32.873 4.952 13.808 1.762 27.772 5.637 41.397 8.523 6.437 1.363 12.543 3.479 18.872 5.154 2.913.771 6.735 1.797 9.172 3.693.825.642 20.781 3.656 19.419 3.247-3.467-1.04-26.722-4.17-30.174-5.276-9.605-3.077-19.498-5.1-29.383-7.102-11.749-2.38-24.007-4.55-35.958-5.561-12.722-1.076-25.714-.324-38.475-.324-39.255 0-78.469 4.608-117.615 6.615-19.276.989-39.725 2.907-58.605 7.102-1.163.259-9.265 2.354-4.14 2.354h44.888c24.013 0 47.98-.73 71.997-.73 21.105 0 41.947 3.046 62.907 5.276 17.579 1.87 36.473 4.983 53.328 10.39 11.058 3.547 22.314 6.109 33.361 9.537 8.285 2.571 16.892 3.659 25.082 6.494 1.053.364 6.181 2.057 7.224 1.014 1.554-1.554-5.002-6.081-5.844-6.737-8.375-6.514-20.88-8.873-30.683-12.419-10.119-3.66-20.375-6.309-30.966-8.117-14.037-2.396-28.843-2.516-43.06-2.516-21.879 0-44.37 2.574-65.992 5.844-19.385 2.932-39.304 6.726-58.361 11.283-9.185 2.196-18.557 5.308-28.084 5.519-7.178.16-14.843.875-21.754 2.922-4 1.185-8.34 1.034-12.46 1.827-4.004.77-8.211 1.826-12.297 1.826-.956 0-14.373-6.893-15.097-6.169-.888.888 12.377 6.242 12.54 6.169 6.884-3.059 15.72-4.91 23.256-5.114 5.516-.149-1.51-1.67-3.41-2.354-1.276-.459-4.87-1.213-4.87-3.084 0-.819 7.585-.406 8.24-.406 29.23 0 58.131-.982 87.378.893 12.451.798 24.742 3.541 37.176 4.627 22.686 1.98 45.019 4.765 67.615 7.549 20.009 2.465 39.995 4.692 59.416 10.349 14.484 4.218 29.538 8.113 44.44 10.552 8.224 1.345 15.737 3.215 23.661 5.479 1.755.501 3.738.73.731.73h-20.049c-22.21 0-42.879-4.021-64.692-7.711-20.332-3.439-41.278-4.095-61.73-6.859-20.513-2.772-40.998-3.893-61.608-5.56-31.096-2.515-62.031-2.741-93.223-2.516-16.212.116-33.256 1.659-48.58 7.305-3.903 1.438-7.336 3.175-11 5.114-2.575 1.364-.167 1.975 1.462 2.557 4.49 1.603 11.183.365 15.828.365 19.95 0 38.935-3.506 58.686-5.682 26.228-2.89 53.602-1.082 79.79 1.299 29.643 2.695 59.568-.152 89.084 5.154 17.54 3.153 33.282 9.592 50 15.301 11.236 3.836 23.249 2.916 34.619 5.681 5.285 1.286 7.191 7.525 10.471 11.242 1.312 1.487-1.718-.591-2.273-.852-5.545-2.601-10.679-5.911-16.315-8.36-10.945-4.756-22.231-7.929-33.32-12.176-12.918-4.947-27.269-1.542-41.113-1.542-37.027 0-74.378-7.143-111.405-7.143-15.48 0-31.085-.581-46.551.162-11.815.568-22.563 5.047-34.091 6.981-14.99 2.514-29.536 3.788-43.75 9.659-2.246.927-4.334 2.465-6.413 3.653-1.948 1.113 6.66.73 7.59.73 32.826 0 65.514-2.721 98.336-2.151 16.098.28 32.089 1.421 48.215 1.421 18.108 0 35.447.916 53.41 3.084 27.261 3.29 55.311 4.045 81.819 11.486 8.328 2.337 18.2 3.499 25.893 7.346" />
</svg>
