<svg width="612"
     height="368"
     viewBox="0 0 612 368"
     fill="none"
     xmlns="http://www.w3.org/2000/svg">
  <path d="M148.008 327.427C147.021 326.532 145.756 327.427 144.676 328.877C144.306 329.648 143.997 330.08 144.368 331.098C145.139 332.61 146.157 332.61 147.546 331.283C149.181 330.574 151.063 329.833 151.618 327.18H150.94C149.952 328.414 149.058 329.37 148.008 327.427Z"
        fill="#FEFEFE" />
  <path d="M398.268 37.1487C395.244 36.7784 392.93 39.1233 390.554 40.6969H395.182C395.985 39.6787 397.003 38.5371 398.268 37.1487Z"
        fill="#FEFEFE" />
  <path d="M268.495 328.105C270.377 328.599 272.197 329.679 274.326 331.129C274.851 330.605 276.27 331.129 275.653 328.599C275.344 328.29 275.005 327.581 274.696 327.211H267.692C268.124 327.365 268.093 327.982 268.495 328.105Z"
        fill="#FEFEFE" />
  <path d="M413.757 29.1264C411.937 28.6945 410.61 29.1265 409.87 31.6565C409.222 33.6929 407.772 36.2847 409.129 36.5932C410.394 37.1486 412.739 37.488 414.621 34.2483C416.318 31.6565 418.602 28.6945 419.897 33.2301C420.175 34.2483 421.039 33.7238 421.903 33.7238C424.433 32.1502 426.901 32.1502 428.907 29.1573C430.326 26.6889 432.147 24.2823 434.522 26.689C435.14 27.5837 436.343 27.5837 437.238 25.6091C438.564 22.647 438.688 22.3076 440.786 23.7269C443.625 24.992 447.173 24.6834 449.919 23.7269C450.443 23.4801 450.32 22.8939 450.505 22.5236H424.927C424.834 22.7087 424.495 22.8322 424.464 23.0173C421.224 29.1264 417.676 30.1138 413.757 29.1264Z"
        fill="#FEFEFE" />
  <path d="M475.774 329.679C475.002 329.679 473.922 330.574 473.922 332.024C473.922 332.795 474.756 333.104 475.404 332.795C477.841 332.024 480.402 332.024 482.778 330.574C484.104 329.741 484.845 328.506 485.246 327.211H478.674C478.18 328.599 477.502 329.679 475.774 329.679Z"
        fill="#FEFEFE" />
  <path d="M233.783 328.599C235.172 332.332 234.277 333.536 234.215 336.251C233.629 335.942 233.012 334.986 232.518 335.479C230.976 338.009 229.926 335.479 228.322 333.536C228.075 338.411 230.945 338.411 232.919 339.367C233.691 339.984 234.061 339.182 234.647 339.059C234.801 339.799 234.801 340.324 235.141 341.218C235.542 340.601 235.696 339.768 235.943 339.059C235.974 338.873 236.036 339.059 236.036 339.059C236.066 338.873 235.943 338.688 236.036 338.688C236.653 336.652 236.807 334.214 235.789 330.08C235.388 328.63 234.832 327.858 234.308 327.18H233.752C233.783 327.735 233.567 327.858 233.783 328.599Z"
        fill="#FEFEFE" />
  <path d="M397.743 342.915C397.281 342.915 396.694 342.915 394.812 342.607C395.861 343.748 395.861 344.581 396.139 345.445H403.297C402.495 344.088 400.983 343.718 397.743 342.915Z"
        fill="#FEFEFE" />
  <path d="M183.892 342.915C184.047 340.879 184.047 339.059 182.442 340.077C181.085 340.632 178.925 341.527 178.246 344.242C178.123 344.674 177.968 344.983 177.876 345.445H184.047C184.139 344.612 184.324 343.718 183.892 342.915Z"
        fill="#FEFEFE" />
  <path d="M418.2 343.409C420.36 337.979 417.429 341.434 416.256 342.144C415.145 342.576 414.127 344.088 413.078 345.445H417.706C417.922 344.798 418.046 344.088 418.2 343.409Z"
        fill="#FEFEFE" />
  <path d="M178.184 25.4548C179.541 27.2135 180.313 30.0829 183.367 27.5529C183.583 25.4548 182.102 26.5347 181.454 25.9176C180.621 25.4548 179.757 25.1771 180.313 23.5418C180.621 22.647 181.609 22.647 182.226 22.9864C184.509 25.1462 186.298 22.6162 188.335 22.6162C188.211 22.5236 188.088 22.5853 187.995 22.5236H176.333C176.919 23.4801 177.412 24.6217 178.184 25.4548Z"
        fill="#FEFEFE" />
  <path d="M578.211 342.915C578.396 341.404 577.039 342.144 576.175 342.144C575.311 342.144 573.645 342.144 573.891 344.088C574.046 344.983 574.786 345.168 575.465 345.476H576.545C577.471 344.921 578.211 344.366 578.211 342.915Z"
        fill="#FEFEFE" />
  <path d="M123.757 39.4937C123.757 39.4937 123.757 39.4937 123.696 39.4937C121.104 35.7603 118.605 31.4407 114.84 34.6187C114.594 34.6187 113.853 34.2484 113.606 33.7239C110.12 28.7255 107.713 31.6567 103.918 31.6567C108.238 35.2975 112.279 38.2903 116.229 40.3576C116.013 40.5427 115.735 40.697 115.488 40.697H125.022C124.59 40.2342 124.128 40.2342 123.757 39.4937Z"
        fill="#FEFEFE" />
  <path d="M424.617 333.813C426.716 333.69 428.968 330.79 430.943 327.18H428.289C426.962 329.37 425.821 331.653 424.617 333.813Z"
        fill="#FEFEFE" />
  <path d="M50.7867 39.6788C51.4346 37.519 53.5636 37.519 54.5201 39.0617C55.6 40.2033 56.649 40.5735 57.6981 40.697H64.0849C64.2084 40.3267 63.8998 39.0617 63.5604 38.2903C62.7891 36.3156 61.0304 36.6242 59.7036 36.3157C53.1008 34.6187 46.9299 37.1487 40.4814 35.7603C38.7535 35.1123 37.5502 36.3157 37.3342 37.519C37.1182 40.3576 39.1855 39.0925 39.9568 39.6788C41.9007 41.1289 44.153 38.6606 46.282 40.697H49.676C50.0771 40.3576 50.4473 40.6044 50.7867 39.6788Z"
        fill="#FEFEFE" />
  <path d="M262.633 22.5236H260.843C261.398 22.5853 262.17 23.0173 262.633 22.647C262.663 22.5853 262.54 22.5853 262.633 22.5236Z"
        fill="#FEFEFE" />
  <path d="M237.362 40.6968H243.749C243.595 40.3266 243.472 39.9255 243.348 39.4935C242.608 37.1486 241.188 36.5932 239.43 37.1486C235.542 38.0434 231.901 37.1486 228.785 30.8851C227.15 27.7689 223.694 25.7016 221.411 22.5236H217.153C216.937 24.6834 217.554 27.4603 215.24 27.2135C211.229 25.9485 207.002 29.1265 203.145 25.1771C202.929 24.6834 202.528 24.6834 201.849 24.6834C202.651 27.2135 200.862 30.6383 203.268 31.7182C206.014 32.613 209.655 32.9832 212.401 31.7182C214.53 30.0829 214.654 30.6383 215.949 33.5386C216.875 35.5133 218.14 35.5133 218.726 34.6802C221.01 32.1502 222.861 34.6802 224.311 37.1486C225.885 39.4318 227.921 39.8021 229.926 40.6968H233.783C234.832 38.6604 236.066 39.1541 237.362 40.6968Z"
        fill="#FEFEFE" />
  <path d="M404.532 335.14C404.532 336.652 405.18 337.423 406.568 338.102C407.525 338.102 408.605 337.454 408.851 336.066C409.006 334.245 407.339 334.245 406.568 334.245C405.673 334.245 404.316 333.536 404.532 335.14Z"
        fill="#FEFEFE" />
  <path d="M593.546 44.2143C592.157 44.5845 590.429 44.2143 589.72 46.3123C590.337 47.1454 590.985 48.0093 591.478 49.0892C593.947 49.151 596.353 49.5212 598.637 47.1146C599.069 46.3432 599.686 46.1581 600.334 46.0964C600.148 45.3867 599.809 44.6462 599.593 43.8132C597.588 43.7823 595.582 43.6589 593.546 44.2143Z"
        fill="#FEFEFE" />
  <path d="M549.239 39.4935C546.616 35.7601 544.117 31.4097 540.353 34.6185C540.075 34.6185 539.427 34.2483 539.18 33.7238C535.632 28.7254 533.225 31.6874 529.492 31.6874C533.781 35.2973 537.792 38.3211 541.71 40.3575C541.494 40.5426 541.217 40.7277 541.001 40.7277H550.565C550.134 40.234 549.609 40.234 549.239 39.4935Z"
        fill="#FEFEFE" />
  <path d="M503.296 333.104C502.648 330.389 500.488 329.494 499.1 329C497.526 328.105 497.434 329.833 497.681 332.024C496.292 334.369 497.681 337.084 499.841 338.596C502.247 339.984 504.839 339.984 507.246 340.632C507.924 341.002 508.757 340.632 508.757 339.984C508.757 338.596 507.739 337.701 506.875 337.701C504.345 337.67 503.944 335.572 503.296 333.104Z"
        fill="#FEFEFE" />
  <path d="M479.939 342.638C480.68 342.144 480.865 340.663 480.371 340.663C478.674 340.108 476.792 341.743 474.725 342.946C476.391 345.168 478.088 344.674 479.939 342.638Z"
        fill="#FEFEFE" />
  <path d="M298.917 40.6968C296.078 37.9199 293.178 34.8962 290.247 32.1502C287.593 30.1138 285.31 27.5837 283.027 24.6834C282.317 23.7269 281.885 23.1716 281.299 22.5236H275.653C281.484 28.0157 289.475 35.1122 296.572 40.7277L298.917 40.6968Z"
        fill="#FEFEFE" />
  <path d="M346.247 40.6969C350.073 38.4137 360.008 30.2681 368.864 22.4928H364.575C363.958 22.9248 363.495 23.6961 362.909 24.2515C357.231 29.5585 351.616 35.1123 346.247 40.6969Z"
        fill="#FEFEFE" />
  <path d="M341.65 36.6241C341.743 35.7911 341.125 34.2792 340.693 34.2792C339.459 34.2792 338.102 34.6494 336.405 36.6241C335.232 38.0126 334.029 39.2776 332.826 40.7278H337.886C338.41 40.2341 338.935 39.5861 339.459 39.0925C340.231 38.6605 341.527 38.2903 341.65 36.6241Z"
        fill="#FEFEFE" />
  <path d="M476.268 39.6788C476.916 37.519 479.076 37.519 480.032 39.0617C481.081 40.2033 482.1 40.5735 483.18 40.697H489.566C489.69 40.3267 489.381 39.0617 489.011 38.2903C488.271 36.3156 486.543 36.5933 485.154 36.3157C478.675 34.6187 472.411 37.1487 465.963 35.7603C464.235 35.1123 463.032 36.3157 462.847 37.519C462.6 40.3576 464.729 39.0925 465.531 39.6788C467.382 41.1289 469.604 38.6606 471.763 40.697H475.188C475.589 40.3576 475.991 40.6044 476.268 39.6788Z"
        fill="#FEFEFE" />
  <path d="M602.863 302.558C602.863 326.223 593.268 345.476 581.543 345.476H576.545C576.329 345.661 576.452 345.97 576.174 346.093C575.804 346.093 575.712 345.661 575.465 345.476H417.768C416.997 349.271 416.565 353.498 413.14 355.01C411.227 355.504 409.468 356.707 407.308 358.034C407.123 357.849 406.876 357.849 406.63 357.849C405.21 358.466 403.668 358.466 402.002 357.725C399.996 357.725 399.07 356.337 399.379 353.807C399.718 350.845 398.021 350.845 395.8 351.277C396.448 348.994 396.818 347.42 396.232 345.476H184.046C183.861 347.173 183.121 348.685 181.67 349.703C179.264 351.154 176.703 351.154 174.235 351.74C173.648 352.048 172.784 351.74 172.784 351.123C172.784 349.672 173.864 348.716 174.697 348.716C176.734 348.716 177.289 347.266 177.875 345.476H29.867C18.1424 345.476 8.54666 326.254 8.54666 302.558V65.3495C8.54666 41.6534 18.1424 22.4928 29.867 22.4928H176.333C174.975 20.0245 173.71 17.4944 171.303 16.3528C170.008 16.0443 167.693 16.3528 168.434 13.4525C168.928 12.6194 170.717 13.0822 172.198 13.0822C178.894 14.0079 185.928 14.4398 192.408 11.4161C193.858 12.6194 191.143 15.0878 194.105 15.0878C195.894 15.0878 197.962 14.4398 198.023 17.5561C198.208 20.9193 195.401 17.8647 194.197 19.0063C192.716 19.9628 190.155 22.1534 188.952 19.9628C186.545 16.3528 185.404 19.3457 183.337 19.9628C185.157 20.9193 186.7 20.9193 187.934 22.4928H217.153C217.184 22.1226 217.153 21.7215 217.215 21.4746C217.678 19.9628 219.313 19.0063 220.208 20.9193C220.485 21.6598 221.01 21.9683 221.411 22.5237H260.812C259.609 22.3386 258.405 22.1534 257.14 22.1534C253.962 21.5055 251.309 17.587 248.47 16.9699C245.323 16.3528 242.824 14.0079 239.924 12.6194C238.103 11.9715 236.715 10.4596 237.702 8.57751C238.103 4.41217 240.818 4.07277 244.737 7.37419C248.1 10.4596 251.247 13.4525 255.196 13.1131C257.14 13.1131 259.948 16.9699 262.231 19.3765C263.033 20.5799 263.033 21.3204 262.601 22.5237H275.622C274.141 21.1352 272.413 19.5 271.364 18.4201C276.424 17.155 277.35 17.4019 281.268 22.5237H364.544C366.488 20.8267 368.401 18.9754 370.16 16.6305C375.837 8.97862 375.96 8.97861 381.792 10.4905C378.892 13.5142 374.017 17.8955 368.833 22.5545H424.834C426.963 19.1914 431.128 17.4327 432.979 13.144C433.781 11.1693 435.478 12.064 435.91 13.5142C436.589 15.6123 435.324 19.7159 437.916 19.2531C441.958 17.9264 446.154 21.2278 450.103 17.2167C450.227 16.6614 450.659 16.6614 451.369 16.6614C450.659 18.6977 451.245 21.0118 450.474 22.5545H581.543C589.38 22.5545 595.89 31.4097 599.593 43.8132C603.542 43.9983 607.522 44.3686 611.441 43.8132V37.7657C611.441 32.7056 610.947 28.0158 610.145 23.4802C609.405 23.5419 608.602 23.8504 607.769 22.9865C607.214 22.6162 606.165 22.6162 605.887 23.5419C605.301 25.1772 606.165 25.4857 606.967 25.9485C607.615 26.5656 609.065 25.4549 608.849 27.5838C605.856 30.1139 605.116 27.2135 603.727 25.4857C601.105 22.6471 600.272 17.8955 596.816 16.3837C595.489 16.0751 593.206 16.3837 593.916 13.4834C594.409 12.6503 596.199 13.1131 597.649 13.1131C600.796 13.4833 603.943 13.761 607.06 13.6068C603.758 5.39951 599.037 0 593.545 0H589.781C588.948 0.123417 588.146 -7.64361e-06 587.282 0.308536C586.356 0.925623 585.492 0.740505 585.091 0H578.087C576.73 0.70965 574.848 0.894781 573.521 1.97468C571.577 3.11629 569.016 1.97468 569.047 0H418.694C419.002 1.01819 419.434 2.46834 419.743 3.14714C420.391 5.55378 420.391 6.94224 419.218 6.44857C418.015 5.30695 416.626 4.35047 415.269 3.23971C414.744 3.79509 414.127 4.25791 413.202 4.62816C410.363 6.07831 407.864 8.42324 404.717 8.97862C401.816 9.74998 399.163 13.4834 395.985 14.1622C394.164 14.1622 392.036 16.0443 390.616 14.7175C389.999 13.5142 390.123 12.7428 390.925 11.4778C393.208 9.00947 395.985 5.21438 397.99 5.21438C401.786 5.58463 404.686 2.80774 407.864 0.0308521H219.467C220.208 1.78955 220.856 3.82594 222.491 4.44303C223.54 4.84414 222.583 6.4177 221.781 6.4177C220.115 6.91137 218.295 6.91138 216.351 6.04746C212.401 4.44303 208.514 1.97468 204.318 1.97468C199.072 1.72785 193.827 1.01819 188.582 0H164.269C163.405 0.123417 162.633 -7.64361e-06 161.769 0.308536C160.813 0.925623 160.011 0.740505 159.64 0H152.637C151.279 0.70965 149.304 0.894781 148.008 1.97468C146.095 3.11629 143.535 1.97468 143.535 0H17.8647C11.3544 0 5.86233 7.71359 2.77689 18.6669C4.56644 17.155 6.41771 15.5197 7.4359 13.1131C8.39239 11.1384 9.96596 12.0332 10.4596 13.4834C11.1076 15.5814 9.81169 19.6851 12.4035 19.1914C16.4454 17.8647 20.6724 21.1661 24.5292 17.155C24.7452 16.5996 25.1463 16.5997 25.8251 16.5997C25.0229 19.1914 26.8124 22.6163 24.4058 23.727C21.6289 24.6835 18.0189 24.992 15.2729 23.727C13.144 22.2769 13.0205 22.6162 11.7247 25.5783C10.7682 27.5529 9.56485 27.5529 8.94776 26.6582C6.66454 24.2515 4.81328 26.6582 3.36312 29.1265C2.56091 30.3298 1.57357 30.8852 0.617087 31.4406C0.431961 33.5387 0 35.5442 0 37.7657V44.2143C1.66614 44.0292 3.36313 43.6589 5.06012 42.6407C4.35047 44.6771 2.31408 46.3124 0 47.9477V330.08C0 351.123 8.02213 368 17.8647 368H95.4634C96.1113 366.025 96.2039 364.267 93.7047 361.551C95.6177 362.045 96.1422 362.045 96.6359 362.045C101.727 362.94 102.591 363.495 103.115 368H168.465C168.619 368 168.743 367.691 168.928 367.815C168.959 367.815 168.989 368 169.082 368H201.232C201.356 367.815 201.078 367.506 201.17 367.506C201.479 367.506 201.849 368 202.127 368H272.105C270.685 365.655 269.389 363.495 269.821 361.737C270.408 359.916 272.722 363.372 274.789 365.778C275.406 366.396 276.054 367.229 276.671 368H446.37C444.982 366.025 444.303 362.816 445.815 357.078C446.308 354.979 446.956 353.221 447.82 353.097C448.561 352.48 448.098 354.116 447.82 355.442C445.876 361.12 448.684 361.243 446.524 367.969H467.567C470.251 367.475 472.843 366.334 475.774 365.748C474.972 367.074 474.077 367.198 473.183 367.969H489.381C491.726 366.519 494.102 365.624 496.323 363.68C497.28 363.31 497.835 363.68 497.835 364.637C497.835 366.149 497.28 367.352 496.323 367.938H503.42C501.538 366.488 501.198 364.513 500.334 362.508C499.501 360.04 500.334 360.04 501.63 360.04C502.278 360.04 503.173 359.145 503.173 358.528C503.296 355.874 504.623 357.633 505.58 357.633C507.153 357.941 506.906 359.669 507.153 360.595C507.863 362.169 507.493 364.822 509.436 364.822C511.473 364.945 510.887 362.539 511.103 361.212C510.701 358.559 511.349 356.646 512.645 356.646C514.805 355.905 516.749 359.176 518.477 360.626C520.575 362.199 518.754 362.909 518.415 364.853C518.106 364.976 518.106 366.797 518.415 367.691C518.415 367.815 518.322 367.815 518.322 368H562.66C562.753 367.815 562.537 368 562.537 367.691C563.061 364.267 565.19 367.074 566.609 366.797C567.35 365.655 568.183 364.976 568.924 364.853C569.695 364.853 570.435 364.853 570.806 365.624C571.361 366.766 570.682 367.074 570.189 367.661C570.065 367.784 570.034 367.969 569.942 367.969H593.545C603.45 367.969 611.41 351.092 611.41 330.049V73.1248C611.132 72.878 610.731 73.1248 610.639 72.1066C610.268 71.1502 610.762 70.965 611.41 70.8416V47.8243C609.991 47.8243 608.448 47.2072 606.967 48.6573C605.702 50.0458 603.758 51.2491 602.37 47.6391C602.061 46.4975 601.228 46.0039 600.333 46.0656C601.845 51.897 602.863 58.2839 602.863 65.3495V302.558ZM459.082 7.15821C462.106 7.15821 459.298 4.62815 460.748 3.48654C467.228 6.44856 474.262 6.0783 481.02 5.18353C482.47 5.18353 484.352 4.62815 484.753 5.55378C485.493 8.45409 483.179 8.08383 481.914 8.45409C478.428 10.0894 477.564 14.7175 474.972 17.5561C473.584 19.2531 472.843 22.3077 469.85 19.7159C469.603 17.5561 471.115 18.636 471.794 17.8955C472.565 17.5253 473.429 17.1859 472.843 15.6123C472.565 14.7175 471.547 14.7175 470.93 15.1186C468.709 17.155 466.888 14.6867 464.914 14.6867C466.148 12.712 467.876 13.1131 469.85 12.0332C467.721 11.4161 466.672 8.42324 464.235 12.0332C463.031 14.1313 460.409 12.0332 458.928 11.1384C457.786 10.0585 454.886 13.1131 455.102 9.74998C455.225 6.41771 457.323 7.15821 459.082 7.15821ZM33.5695 7.15821C36.5316 7.15821 33.8164 4.62815 35.3282 3.48654C41.746 6.44856 48.7808 6.0783 55.5379 5.18353C56.9572 5.18353 58.7467 4.62815 59.2404 5.55378C59.95 8.45409 57.6668 8.08383 56.3709 8.45409C52.9461 10.0277 52.0822 14.6867 49.4287 17.4944C48.1019 19.1914 47.3614 22.2769 44.3069 19.6851C44.1526 17.5253 45.5719 18.6052 46.2815 17.8647C47.0838 17.4944 47.886 17.155 47.3614 15.5815C47.0838 14.6867 45.973 14.6867 45.4485 15.0878C43.227 17.1242 41.4374 14.6558 39.3393 14.6558C40.7278 12.6811 42.3939 13.0822 44.3069 12.0023C42.2396 11.3853 41.1289 8.39239 38.7531 12.0023C37.5189 14.1004 34.958 12.0023 33.4461 11.1076C32.3045 10.0277 29.4351 13.0823 29.6202 9.71913C29.7128 6.41771 31.78 7.15821 33.5695 7.15821ZM105.46 357.078C104.041 356.553 103.393 355.627 103.393 354.054C103.239 352.48 104.535 353.097 105.46 353.097C106.324 353.097 107.959 353.097 107.743 355.134C107.466 356.553 106.448 357.078 105.46 357.078ZM178.832 361.551C176.981 363.65 175.314 364.081 173.679 362.045C175.685 360.657 177.598 359.207 179.295 359.515C179.758 359.515 179.542 361.243 178.832 361.551ZM206.231 359.731C203.731 359.083 201.14 359.083 198.795 357.695C196.604 356.059 195.154 353.221 196.604 350.938C196.388 348.901 196.419 346.957 198.023 348.099C199.35 348.407 201.541 349.487 202.219 352.203C202.806 354.671 203.238 356.676 205.86 356.676C206.57 356.676 207.742 357.695 207.742 359.083C207.742 359.731 206.848 360.04 206.231 359.731ZM275.036 364.976C274.018 364.976 272.969 364.544 272.753 362.94C272.567 361.12 274.172 361.12 275.036 361.12C275.931 361.12 277.288 360.502 277.103 362.014C277.103 363.65 276.393 364.575 275.036 364.976ZM283.798 367.229C280.898 363.372 276.702 364.699 275.221 355.165C277.597 355.782 280.158 360.286 282.78 362.816C283.86 363.711 284.632 365.347 284.632 366.797C284.817 367.815 284.354 368.309 283.798 367.229ZM417.676 361.737C417.305 362.816 417.305 363.742 417.028 364.699C416.225 367.846 414.621 367.846 411.566 365.778C414.621 363.742 416.04 361.737 412.43 359.947C412.029 359.114 411.32 358.805 411.875 357.725C412.276 356.707 412.924 356.707 413.695 356.707C414.436 357.139 415.361 357.725 416.009 358.805C417.521 359.114 419.558 356.337 420.051 359.947C420.792 361.737 418.2 360.811 417.676 361.737ZM482.346 354.671C481.421 356.676 481.328 359.083 479.045 360.286C475.404 361.243 471.856 361.737 468.122 363.372C465.716 364.267 463.618 363.742 464.296 359.947C464.512 358.805 464.512 357.108 464.296 356.707C463.895 355.195 462.137 354.177 464.266 352.665C465.963 351.277 467.845 348.037 470.066 348.747C471.424 348.747 472.041 350.845 471.578 353.252C471.856 354.702 471.208 357.108 473.213 356.676C475.25 356.676 474.88 354.146 475.497 352.634C475.805 351.74 475.497 350.228 477.163 349.673C478.119 349.673 479.353 347.976 479.539 350.814C479.539 351.246 480.402 352.326 481.05 352.326C482.346 352.326 483.179 352.326 482.346 354.671ZM502.71 350.567C502.062 350.197 501.877 348.407 502.278 348.407C503.975 348.099 505.95 349.673 507.955 350.938C506.258 353.097 504.623 352.635 502.71 350.567ZM586.943 359.207C584.752 358.589 583.024 358.589 583.425 361.737C583.734 364.267 582.746 365.655 580.741 365.655C578.581 366.797 576.144 367.105 574.57 364.884C573.768 363.742 573.644 361.274 575.928 361.737C577.748 361.737 578.087 361.243 578.211 359.207C578.828 352.203 579.106 352.203 584.999 350.938C585.431 350.938 585.986 350.938 587.806 350.567C584.536 354.146 585.986 355.936 586.943 359.207Z"
        fill="#FEFEFE" />
  <path d="M404.532 351.246C404.624 353.221 405.026 353.776 406.815 353.776C406.877 353.776 406.877 353.961 407 353.961C409.098 351.431 411.042 348.099 413.079 345.476H403.298C403.946 346.587 404.223 348.099 404.532 351.246Z"
        fill="#FEFEFE" />
  <path d="M609.065 19.9937H608.849L609.127 20.0863L609.065 19.9937Z"
        fill="#FEFEFE" />
  <path d="M597.402 63.0662C597.402 58.8391 596.877 54.8589 596.106 51.1873C595.396 51.3724 594.687 51.5575 593.946 50.817C593.298 50.3851 592.373 50.3851 592.064 51.249C591.509 52.5757 592.373 52.8226 593.113 53.3471C593.761 53.7173 595.18 52.7917 594.964 54.5504C593.576 55.6303 592.743 55.4452 592.002 55.0441C593.144 58.9008 593.946 63.3747 594.008 67.9412C595.18 67.9412 596.229 68.0646 597.371 67.9412V63.0662H597.402Z"
        fill="#FEFEFE" />
  <path d="M460.624 332.332C458.742 333.104 457.323 332.456 457.261 330.388H440.692C440.939 331.839 441.186 333.165 440.045 336.22H460.1C462.723 335.788 465.253 334.955 467.968 334.369C467.135 335.449 466.363 335.572 465.53 336.22H480.957C483.179 335.078 485.462 334.369 487.653 332.672C488.424 332.301 489.041 332.672 489.041 333.443C489.041 334.77 488.517 335.726 487.653 336.22H494.379C492.528 335.078 492.281 333.443 491.448 331.715C491.078 330.944 491.201 330.574 491.325 330.388H468.863C466.147 330.944 463.401 331.283 460.624 332.332Z"
        fill="#FEFEFE" />
  <path d="M576.297 330.388H570.929C570.867 330.574 570.589 330.574 570.682 331.098C570.99 333.073 570.034 334.245 568.09 334.245C566.023 335.14 563.678 335.449 562.258 333.659C561.425 332.702 561.425 330.635 563.523 331.129C564.542 331.129 564.974 330.82 565.344 330.419H508.85C510.238 331.499 509.004 332.301 508.664 333.69C508.418 333.875 508.418 335.202 508.664 336.035C508.695 336.158 508.572 336.096 508.572 336.282H550.935C550.935 336.096 550.781 336.282 550.811 336.035C551.305 333.134 553.28 335.51 554.668 335.202C555.347 334.307 556.18 333.875 556.89 333.69C557.538 333.69 558.278 333.69 558.618 334.276C559.142 335.171 558.494 335.479 558.062 336.035C557.97 336.096 557.97 336.282 557.846 336.282H580.37C589.781 336.282 597.402 322.428 597.402 304.934V92.2853C597.124 91.9768 596.723 92.2853 596.599 91.6374C596.26 90.6192 596.754 90.4958 597.402 90.3723V71.3352C596.353 71.3352 595.303 71.4586 594.193 71.9831V298.392C594.193 316.041 586.171 330.388 576.297 330.388Z"
        fill="#FEFEFE" />
  <path d="M46.5589 37.5189C48.2559 37.2721 46.4663 35.5442 47.7622 34.8037C53.8714 37.1487 60.5359 36.7784 67.0153 36.007C68.4038 36.007 70.1625 35.6368 70.5636 36.3773C70.7796 37.1487 70.4093 37.2721 70.1933 37.5189H241.805C242.7 36.2539 244.274 36.0688 246.557 37.5189H391.079C392.035 36.8093 393.023 36.007 393.763 36.007C397.342 36.3773 400.15 34.0632 403.143 31.7183H223.416C224.126 33.1684 224.774 34.9272 226.286 35.4825C227.273 35.7911 226.471 37.1795 225.638 37.1795C224.002 37.5189 222.336 37.5189 220.423 36.7784C216.721 35.4517 212.956 33.3536 209.038 33.3536C203.947 32.9833 199.01 32.6439 193.981 31.7183H170.748C169.976 31.8417 169.236 31.7183 168.403 32.0268C167.539 32.5205 166.737 32.3354 166.336 31.7183H159.64C158.375 32.3354 156.555 32.4897 155.197 33.3536C153.408 34.3101 150.908 33.3536 150.97 31.7183H31.1317C24.8991 31.7183 19.6847 38.2286 16.7227 47.2072C18.4197 45.9422 20.1784 44.6154 21.1966 42.579C21.9988 41.0672 23.6032 41.8694 24.0352 42.8876C24.2512 43.5047 24.2203 44.3377 24.2203 44.8623C27.2441 40.5118 30.9774 37.5189 35.2045 37.5189H46.5589Z"
        fill="#FEFEFE" />
  <path d="M412.461 331.129C412.183 332.024 412.183 332.703 411.905 333.474C411.165 336.066 409.622 336.066 406.722 334.369C409.098 333.104 410.239 331.715 408.851 330.389H282.255C282.78 330.944 283.273 331.469 283.767 332.024C284.878 332.672 285.557 334.029 285.557 335.171C285.711 336.066 285.31 336.56 284.816 335.726C283.027 333.505 280.959 332.487 279.17 330.419H184.817C184.694 330.605 184.941 330.975 184.663 330.975C182.873 332.672 181.3 333.135 179.695 331.345C180.621 330.851 181.392 330.851 182.256 330.45H35.2044C25.3618 330.45 17.2471 316.103 17.2471 298.454V69.515C17.2471 69.4533 17.3088 69.3298 17.3088 68.9596C16.4449 69.9469 15.3342 70.78 14.0383 71.3971V304.903C14.0383 322.366 21.6902 336.251 31.1007 336.251H105.028C105.707 334.677 105.799 333.135 103.454 330.944C105.213 331.314 105.768 331.314 106.262 331.314C111.014 332.271 111.908 332.579 112.402 336.251H174.759C174.913 336.251 175.036 336.004 175.191 336.066C175.252 336.066 175.283 336.251 175.283 336.251H206.045C206.076 336.066 205.829 335.819 205.983 335.819C206.199 335.757 206.6 336.251 206.847 336.251H273.647C272.289 334.4 271.024 332.579 271.395 331.129C272.012 329.556 274.171 332.332 276.115 334.369C276.732 334.986 277.349 335.572 277.905 336.22H439.828C438.872 334.955 438.563 333.104 438.872 330.389H414.158C413.602 330.389 412.862 330.512 412.461 331.129ZM276.455 333.813C275.529 333.813 274.511 333.258 274.357 332.24C274.11 330.481 275.591 330.481 276.455 330.481C277.319 330.481 278.584 330.049 278.429 331.253C278.429 332.61 277.781 333.289 276.455 333.813Z"
        fill="#FEFEFE" />
  <path d="M17.2471 56.0316C16.4758 56.9264 15.581 57.3892 14.6554 57.9446C14.5011 59.6416 14.0383 61.246 14.0383 63.0664V68.4968C15.1799 68.3734 16.3215 67.8489 17.4631 67.5403C17.6791 62.3568 18.6047 57.7286 20.024 53.5016C19.0058 53.841 18.111 54.7049 17.2471 56.0316Z"
        fill="#FEFEFE" />
  <path d="M453.652 34.8037C459.823 37.1486 466.58 36.7783 473.059 36.007C474.324 36.007 476.114 35.6367 476.515 36.3772C476.731 37.1486 476.391 37.272 476.175 37.5189H576.267C579.63 37.5189 582.685 39.6787 585.4 42.6407C588.022 42.8875 590.583 43.1344 593.206 43.0109C590.059 36.2538 585.492 31.7491 580.371 31.7491H576.699C575.927 31.8725 575.156 31.7491 574.354 32.0576C573.49 32.5513 572.719 32.3662 572.256 31.7491H565.591C564.326 32.3662 562.475 32.5204 561.21 33.3844C559.328 34.3409 556.89 33.3844 556.921 31.7491H413.479C413.819 32.6439 414.22 33.8472 414.528 34.3409C415.145 36.3772 415.145 37.5497 414.004 37.1795C412.862 36.0996 411.505 35.2973 410.24 34.526C409.746 34.9579 409.16 35.2973 408.296 35.6676C406.784 36.2847 405.334 36.8092 403.884 37.5497H452.448C454.207 37.272 452.387 35.5133 453.652 34.8037Z"
        fill="#FEFEFE" />
  <path d="M500.179 333.659C502.061 333.844 501.506 331.715 501.691 330.635C501.691 330.388 501.876 330.512 501.814 330.388H498.081C498.513 331.715 498.297 333.659 500.179 333.659Z"
        fill="#FEFEFE" />
  <path d="M595.088 48.2562L594.964 48.3179L595.211 48.3488L595.088 48.2562Z"
        fill="#FEFEFE" />
  <path d="M441.31 326.007C441.371 325.822 441.279 325.822 441.31 325.699H440.291C440.014 326.223 439.643 326.347 439.397 327.21C438.965 328.599 439.057 329.432 438.965 330.419H440.723C440.569 329.247 440.415 328.044 441.31 326.007Z"
        fill="#FEFEFE" />
  <path d="M456.953 41.8693C459.236 38.6605 460.316 41.1597 462.321 41.8693C461.89 41.9928 461.674 42.1162 461.303 42.3013H470.128C471.053 40.7277 472.071 39.401 473.799 38.6913C474.602 38.4445 475.712 38.3211 476.175 37.5497H452.479C452.263 37.5497 452.263 37.5497 451.985 37.5497C450.288 37.5497 448.314 37.1795 448.252 39.9564C448.005 42.6099 450.813 40.2649 451.862 41.098C452.51 41.4065 453.497 41.9928 454.361 42.3013H454.824C455.688 42.3939 456.49 42.5173 456.953 41.8693Z"
        fill="#FEFEFE" />
  <path d="M503.173 326.902C502.031 326.902 501.538 328.537 501.784 330.389H508.819C508.819 330.389 508.912 330.389 508.727 330.142C507.091 328.938 505.24 326.223 503.173 326.902Z"
        fill="#FEFEFE" />
  <path d="M203.762 327.735C206.014 328.815 208.513 328.815 210.827 329.432C211.383 329.555 212.216 329.432 212.216 328.815C212.216 327.735 211.167 326.871 210.457 326.871C209.161 326.871 208.452 326.316 207.927 325.668H201.849C202.312 326.408 202.867 327.211 203.762 327.735Z"
        fill="#FEFEFE" />
  <path d="M279.2 330.388H282.286C280.373 328.414 278.46 326.1 276.701 325.699H276.67C277.164 328.414 278.244 329.37 279.2 330.388Z"
        fill="#FEFEFE" />
  <path d="M114.686 327.21C115.519 327.21 116.475 326.84 116.753 325.699H113.451C113.698 326.223 113.853 326.902 114.686 327.21Z"
        fill="#FEFEFE" />
  <path d="M496.323 327.735C495.551 327.735 494.286 326.223 494.132 328.568C494.132 328.938 493.33 329.833 492.651 329.833C491.88 329.833 491.509 330.018 491.324 330.389H498.081C497.989 330.389 497.989 330.265 497.958 330.142C497.711 329.494 497.927 327.982 496.323 327.735Z"
        fill="#FEFEFE" />
  <path d="M378.336 40.5426C374.016 39.4627 372.874 39.2776 370.159 42.3013H376.176C376.885 41.8077 377.78 41.0672 378.336 40.5426Z"
        fill="#FEFEFE" />
  <path d="M591.879 69.5148V72.7545C592.372 72.5077 592.773 72.3226 593.113 72.1066C593.514 71.7363 593.822 72.0449 594.162 71.9832V69.5148C594.162 68.8978 594.008 68.5583 594.008 67.9413C593.267 67.9413 592.465 67.9413 591.724 67.9413C591.755 68.5583 591.879 68.8978 591.879 69.5148Z"
        fill="#FEFEFE" />
  <path d="M242.977 42.2088L243.101 42.2705H256.152C253.036 41.9619 250.351 40.2341 247.544 37.92C247.173 37.488 246.957 37.7349 246.556 37.488H241.805C241.527 38.0126 240.91 38.0434 240.848 38.8456C239.892 40.5426 241.188 41.746 242.977 42.2088Z"
        fill="#FEFEFE" />
  <path d="M414.867 329.556C414.343 326.594 412.43 328.815 411.01 328.661C410.301 327.766 409.468 327.211 408.758 326.902C408.048 326.902 407.37 326.902 406.999 327.735C406.475 328.63 407.184 328.815 407.555 329.556C408.203 329.864 408.604 330.08 408.881 330.389H414.25C414.713 330.389 415.145 330.142 414.867 329.556Z"
        fill="#FEFEFE" />
  <path d="M22.7085 53.8409C23.6959 51.496 24.8992 49.5213 26.3185 47.7009C26.1642 47.7009 26.0408 47.6392 25.8865 47.7009C24.2512 47.9477 24.1895 46.4976 24.1895 44.8623C22.4925 47.2072 21.1658 50.0458 20.0551 53.4706C20.8881 53.1312 21.6903 52.9461 22.616 53.8409H22.7085Z"
        fill="#FEFEFE" />
  <path d="M386.914 42.2705H394.411C396.355 41.1289 398.268 39.6787 400.212 39.2467C401.6 38.9382 402.742 38.2285 403.945 37.488H391.11C389.752 38.5679 388.333 40.0181 387.037 41.098C386.698 41.7459 386.944 41.9619 386.914 42.2705Z"
        fill="#FEFEFE" />
  <path d="M182.256 330.389H184.817C185.033 329.833 185.434 329.37 185.095 329.37C184.231 329.124 183.243 329.957 182.256 330.389Z"
        fill="#FEFEFE" />
  <path d="M580.741 42.8875C580.494 43.6588 580.895 43.6588 581.049 43.9674C581.697 44.3993 582.438 44.6153 583.086 45.2324C583.178 45.2324 583.302 45.3558 583.456 45.3558C586.727 46.6826 587.56 50.4159 590.09 52.8226C590.738 53.4705 591.293 54.3961 592.033 55.0441C590.522 49.9223 588.238 45.6335 585.431 42.6406C585.03 42.5789 584.69 42.6406 584.258 42.5789C582.901 42.5789 581.173 42.2087 580.741 42.8875Z"
        fill="#FEFEFE" />
  <path d="M465.53 326.902C464.419 327.025 464.142 326.408 464.111 325.699H456.366C456.582 326.007 456.891 326.408 457.014 326.902C457.292 327.211 457.292 328.661 457.014 329.555C456.891 330.049 457.23 330.049 457.292 330.389H468.893C469.634 330.389 470.374 330.08 471.084 329.833C473.059 328.877 473.367 327.365 474.015 325.668H467.135C466.919 326.347 466.548 326.902 465.53 326.902Z"
        fill="#FEFEFE" />
  <path d="M17.4937 67.5402C17.4937 68.0338 17.3395 68.6201 17.3395 68.9903C18.0183 68.5584 18.6354 67.7562 18.8513 67.1082C18.3885 67.3551 17.8949 67.355 17.4937 67.5402Z"
        fill="#FEFEFE" />
  <path d="M397.558 327.735C399.131 328.352 400.612 328.352 401.939 327.735C402.124 327.735 402.371 327.858 402.618 327.982C404.562 326.902 406.197 326.038 407.894 325.699H395.274C395.46 326.902 396.108 327.735 397.558 327.735Z"
        fill="#FEFEFE" />
  <path d="M197.652 41.1289C195.924 41.9619 194.227 41.9619 192.469 42.2705H198.022C198.084 41.9619 198.022 41.4991 197.652 41.1289Z"
        fill="#FEFEFE" />
  <path d="M565.684 328.938C565.622 329.679 565.468 330.08 565.313 330.388H570.929C571.114 328.815 572.255 328.63 574.045 328.938C573.521 327.735 573.058 326.84 573.027 325.699H566.208C565.961 326.532 565.869 327.55 565.684 328.938Z"
        fill="#FEFEFE" />
  <path d="M51.0325 41.8694C53.3774 38.6605 54.3648 41.1598 56.3703 41.8694C55.9075 41.962 55.6606 42.0854 55.2904 42.2705H64.1456C65.1021 40.6969 66.1203 39.3702 67.8481 38.6605C68.712 38.4137 69.6994 38.2903 70.1931 37.5189H46.5586C46.3735 37.5189 46.3426 37.5189 46.0649 37.5189C44.3988 37.5189 42.3624 37.1487 42.3624 39.9256C42.2081 42.579 44.8308 40.2341 46.0649 41.0672C46.682 41.3757 47.6077 41.962 48.4716 42.2705H48.9344C49.7675 42.3939 50.508 42.5173 51.0325 41.8694Z"
        fill="#FEFEFE" />
  <path d="M167.169 90.6194C167.169 89.0458 167.138 87.7808 167.107 87.0711C166.984 84.5102 166.46 82.6589 166.151 80.53C165.626 81.9801 165.256 83.6771 163.251 84.1091C164.855 81.8259 159.857 79.5426 158.746 77.1051C158.468 76.0252 158.345 75.0688 158.499 74.2048C158.931 73.6803 160.443 73.1866 162.572 73.6803C164.547 74.3282 164.948 75.9635 165.688 77.4137C165.41 76.2104 165.41 74.5751 165.102 73.4952C164.454 71.3971 163.312 69.7001 162.356 67.7563C161.893 67.6946 161.214 67.4477 161.029 67.4477C159.178 67.6329 157.635 67.6946 156.37 66.8307C155.599 66.0902 154.18 65.2262 155.414 64.64C156.494 63.9304 158.623 64.3315 160.751 64.7017C160.474 64.2697 160.412 63.6835 160.104 63.2516C157.882 60.3512 154.92 58.1297 151.248 56.6179C147.515 55.106 143.103 54.3346 137.981 54.3346C133.445 54.3346 129.342 55.0443 125.855 56.3093C122.338 57.5126 119.468 59.4564 117.216 61.678C115.025 63.9612 113.174 66.7998 111.786 70.2863C110.397 73.6803 109.379 77.4137 108.854 81.3322C108.268 85.189 108.021 89.6937 108.021 94.5996V108.885C108.33 108.885 108.669 108.762 108.978 108.762C111.076 108.638 112.65 108.453 114.532 107.744C116.321 107.188 118.049 105.8 120.178 106.972C121.844 108.176 122.708 108.669 119.561 110.459C116.043 112.217 112.125 113.112 108.021 113.884V125.701C108.021 130.637 108.268 135.111 108.854 139.03C109.41 142.887 110.428 146.558 111.816 149.983C113.174 153.408 115.056 156.308 117.278 158.592C119.53 160.875 122.399 162.757 125.917 163.96C129.403 165.349 133.476 165.997 138.043 165.997C143.411 165.997 148.039 165.102 151.865 163.343C155.66 161.646 158.653 159.116 160.875 155.938C163.096 152.698 164.701 148.842 165.719 144.553C166.706 140.326 167.2 135.327 167.2 129.712V125.732H151.495V129.712C151.495 132.304 151.433 134.71 151.279 136.777C151.125 138.752 150.755 140.881 150.199 143.041C149.613 145.262 148.903 146.898 147.947 148.471C146.99 149.86 145.664 150.878 144.028 151.834C142.362 152.667 140.357 153.161 138.012 153.161C135.729 153.161 133.723 152.667 131.964 151.834C130.206 151.001 128.879 149.86 127.799 148.471C126.75 146.898 125.917 145.293 125.238 143.103C124.621 141.005 124.158 138.876 123.942 136.777C123.757 134.618 123.634 132.304 123.634 129.712V103.918C122.677 104.473 122.307 105.059 120.764 105.429C119.191 105.985 117.987 105.429 118.142 104.997C118.944 103.856 120.332 102.467 123.479 101.696C123.541 101.696 123.541 101.696 123.634 101.696V90.6194C123.634 87.6574 123.726 85.0656 123.881 82.9675C124.004 80.9002 124.405 78.8638 124.93 76.7349C125.516 74.5134 126.256 72.8164 127.244 71.6131C128.293 70.2863 129.743 69.2064 131.532 68.3734C133.322 67.6329 135.451 67.1701 137.981 67.1701C139.986 67.1701 141.683 67.4169 143.134 67.7871C144.645 68.2499 145.849 68.8979 146.774 69.8235C147.762 70.78 148.533 71.7056 149.15 72.8473C149.798 73.9272 150.292 75.1922 150.57 76.9509C150.94 78.5244 151.187 80.098 151.279 81.7024C151.403 83.1526 151.464 84.9422 151.495 87.1945V90.6194H167.169ZM117.833 94.8156C117.154 95.5869 116.506 96.204 115.396 97.2839C112.526 96.636 111.23 95.8955 114.131 94.4762C117.247 93.4271 119.9 92.8409 117.833 94.8156Z"
        fill="#FEFEFE" />
  <path d="M205.737 54.3346C200.214 54.3346 195.524 55.1677 191.606 56.6796C187.687 58.3148 184.602 60.6598 182.226 63.8995C179.881 67.0466 178.246 70.78 177.166 75.0688C176.117 79.2032 175.561 84.2325 175.561 90.0023V129.712C175.561 135.451 176.117 140.449 177.166 144.769C178.03 148.502 179.665 151.711 181.547 154.58C187.101 153.069 192.593 151.557 198.054 151.341C196.604 150.569 195.185 149.582 194.29 148.194C192.192 144.83 191.143 139.986 191.143 133.599V86.0838C191.143 79.6969 192.192 75.0688 194.29 71.7982C196.357 68.7745 200.183 67.1701 205.706 67.1701C211.198 67.1701 215.024 68.8053 217.091 71.7982C219.22 75.0379 220.239 79.6969 220.239 86.0838V133.63C220.239 140.017 219.159 144.83 217.061 148.224C215.549 150.569 212.741 151.896 209.285 152.513C208.977 152.698 209.1 152.822 208.668 153.038C202.22 156.308 194.29 156.586 186.731 158.406C193.858 156 187.595 156.123 188.088 154.982C185.095 155.876 184.879 156.864 184.571 157.388C184.571 157.573 184.293 157.635 184.231 157.758C186.33 159.918 188.551 162.171 191.606 163.559C195.524 165.133 200.214 166.027 205.737 166.027C211.167 166.027 215.919 165.133 219.837 163.436C223.725 161.862 226.872 159.332 229.186 156.154C231.47 152.822 233.197 149.027 234.277 144.769C235.357 140.357 235.882 135.358 235.882 129.774V90.0023C235.882 78.4936 233.506 69.6384 228.754 63.4984C224.064 57.3892 216.413 54.3346 205.737 54.3346Z"
        fill="#FEFEFE" />
  <path d="M264.669 116.167L264.947 115.982C265.163 115.365 251.895 110.027 250.167 110.089C249.951 110.089 249.766 110.027 249.52 110.027V116.599C250.26 116.537 250.599 116.167 251.741 116.352C257.665 118.203 257.881 125.639 252.42 126.781C253.561 125.146 251.309 123.479 249.52 121.782V164.886H265.224V121.32C261.213 119.962 260.72 118.759 264.669 116.167Z"
        fill="#FEFEFE" />
  <path d="M302.188 55.4146L291.852 111.57C293.302 113.02 295.276 114.532 297.837 116.506C294.906 115.889 293.024 115.056 291.296 114.223L286.73 139.184L271.148 55.4146H249.519V107.373C249.705 107.373 249.828 107.312 250.013 107.373C254.95 107.805 260.041 108.762 265.224 109.132V78.4937L270.686 108.731C273.709 108.731 276.733 109.101 279.541 108.176C280.528 111.199 282.657 113.421 272.722 111.323C272.167 111.199 271.673 111.138 271.118 111.138L272.969 121.073C273.987 121.967 274.913 122.831 275.098 123.726C274.388 123.541 273.987 123.418 273.339 123.294L280.867 164.824H292.592L308.235 78.4628V164.824H323.848V55.4146H302.188Z"
        fill="#FEFEFE" />
  <path d="M350.783 123.88C349.148 124.312 347.883 123.88 348.068 123.387C348.839 122.245 350.289 120.795 353.436 120.116C354.146 120.116 355.103 119.931 355.812 119.931V55.4146H340.169V126.812C341.619 126.75 342.977 126.565 344.458 126.04C346.247 125.547 347.944 124.158 350.104 125.392C351.832 126.472 352.603 127.028 349.456 128.817C346.649 130.206 343.44 130.977 340.169 131.656V164.855H355.812V120.918C354.794 121.875 353.436 123.017 350.783 123.88ZM347.79 113.205C347.08 113.976 346.433 114.593 345.353 115.735C342.452 115.025 341.126 114.223 344.088 112.835C347.173 111.755 349.827 111.168 347.79 113.205Z"
        fill="#FEFEFE" />
  <path d="M425.821 87.1637C424.494 86.6392 425.605 86.4541 427.271 86.0838V55.4146H411.597V84.5103C414.559 84.5103 417.552 84.8188 420.329 83.9549C421.316 87.0403 423.445 89.2001 413.479 87.0403C412.831 86.9169 412.245 86.9169 411.566 86.7935V90.2183C412.153 90.4651 412.461 90.5886 412.307 90.8354C411.813 91.0205 411.906 91.2057 411.566 91.4525V94.939C413.171 96.5126 415.547 98.0245 415.855 99.4438C414.127 99.0735 412.955 98.7958 411.566 98.4256V123.078L397.342 87.7808C394.38 86.7626 391.665 85.8061 390.956 85.8987C389.135 85.9604 387.592 86.0221 386.266 85.2507C385.556 84.4794 384.168 83.6772 385.34 82.9675C386.451 82.2579 388.611 82.8441 390.801 83.091C392.375 83.2144 394.072 83.4612 395.645 83.7081L384.229 55.4454H372.505V164.886H388.179V92.0387L388.487 92.8718C388.518 92.8101 388.456 92.625 388.456 92.5015C388.888 92.0079 390.462 91.6068 392.56 92.0079C398.453 93.9517 398.7 101.295 393.208 102.437C394.35 100.801 392.036 99.1352 390.215 97.3765L416.102 164.824H427.24V87.7808C426.778 87.6574 426.346 87.4106 425.821 87.1637Z"
        fill="#FEFEFE" />
  <path d="M448.993 156.123C455.133 154.025 461.273 152.76 467.444 152.328C467.136 152.266 466.704 152.266 466.395 152.205C464.698 151.433 463.248 150.508 462.168 149.181C461.088 147.916 460.132 146.528 459.33 144.831C458.589 143.319 458.003 141.406 457.633 139.153C457.201 137.055 456.985 134.865 456.799 132.828C456.676 130.73 456.583 128.323 456.583 125.732V90.6194C456.583 87.0712 456.799 83.9857 457.262 81.3323C457.756 78.6171 458.558 76.2104 459.731 73.9889C460.872 71.7674 462.569 70.0704 464.729 68.9288C466.889 67.7872 469.604 67.1701 472.751 67.1701C475.127 67.1701 477.102 67.4787 478.799 68.1883C480.465 68.898 481.853 69.7002 482.871 70.8418C483.89 71.9834 484.692 73.4953 485.247 75.1923C485.895 77.0744 486.235 78.8639 486.512 80.6843C486.697 82.5664 486.821 84.7879 486.944 87.4414V90.6503H502.526C502.526 89.1384 502.526 87.9968 502.495 87.4106C502.248 82.1036 501.569 77.5989 500.366 73.6804C499.255 69.7619 497.466 66.337 495.121 63.4367C492.837 60.413 489.752 58.1915 486.019 56.6796C482.347 55.1678 477.842 54.3964 472.751 54.3964C451.523 54.3964 440.94 67.8489 440.94 94.6613V122.245C440.94 127.737 441.156 132.489 441.712 136.716C442.205 140.881 443.162 144.861 444.581 148.718C445.692 151.649 447.296 153.933 448.993 156.123Z"
        fill="#FEFEFE" />
  <path d="M472.165 121.875H487.747V125.732C487.747 128.848 487.685 131.687 487.438 134.155C487.222 136.562 486.79 139.03 486.173 141.437C485.772 142.825 485.155 143.843 484.63 144.861C486.05 144.8 487.376 144.676 486.636 145.417C486.173 145.91 484.661 146.497 483.674 147.114C483.55 147.237 483.55 147.546 483.427 147.669C482.717 148.749 481.391 149.613 480.218 150.508C481.73 151.526 482.44 152.143 479.447 153.809C472.998 157.018 465.069 157.234 457.478 158.993C464.668 156.709 458.342 156.771 458.898 155.63C455.936 156.524 455.689 157.573 455.35 158.16C455.257 158.993 454.455 159.61 453.221 160.042C455.072 161.43 456.738 162.88 459.114 163.837C462.785 165.287 467.198 165.997 472.134 165.997C479.478 165.997 484.723 161.646 487.747 153.161L491.727 164.855H503.421V110.243H472.134V121.875H472.165Z"
        fill="#FEFEFE" />
  <path d="M208.606 255.258C207.28 254.765 208.298 254.487 209.871 254.24L194.783 242.176C189.6 237.949 186.946 232.889 186.946 226.687C186.946 223.016 187.934 220.054 190.032 217.955C192.007 215.857 194.938 214.747 198.671 214.747C203.361 214.747 206.94 216.382 209.378 219.251C211.753 222.337 213.265 226.317 214.037 231.254C214.098 232.519 214.283 233.599 214.314 234.339L230.019 230.421C229.803 228.97 229.649 227.767 229.495 226.934C228.291 218.974 225.082 212.772 219.899 208.483C214.623 204.133 207.557 201.911 198.702 201.911C190.464 201.911 183.83 204.256 178.832 209.193C173.772 213.883 171.272 220.331 171.272 228.415C171.272 233.845 172.383 238.906 174.512 243.194C176.271 246.743 178.832 249.519 181.67 252.111C188.921 253.068 196.326 254.055 203.083 252.049C204.071 255.011 206.169 257.295 196.234 255.073C193.642 254.641 190.587 254.24 189.939 255.505C189.384 256.153 188.026 257.202 192.593 257.85C193.827 258.035 195.431 258.621 195.092 258.868C192.161 260.01 192.747 261.337 194.136 262.787L202.528 269.544C204.41 270.994 205.86 272.136 206.94 273.216C207.958 274.172 209.192 275.561 210.488 277.196C211.815 278.893 212.741 280.621 213.358 282.688C214.037 284.632 214.314 286.73 214.314 289.013C214.314 296.912 210.427 300.769 202.559 300.769C192.932 300.769 187.78 292.932 186.977 277.319L171.365 281.238C171.982 291.235 174.882 299.195 180.035 304.934C185.219 310.673 192.778 313.604 202.559 313.604C210.92 313.604 217.585 311.444 222.583 306.847C227.458 302.311 230.019 296.048 230.019 288.057C230.019 276.363 224.805 266.243 214.438 257.912C212.37 256.924 210.704 256.03 208.606 255.258Z"
        fill="#FEFEFE" />
  <path d="M290 244.459C288.118 244.521 286.606 244.644 285.341 243.811C284.569 243.04 283.15 242.176 284.384 241.652C285.495 240.942 287.655 241.343 289.845 241.652C293.054 241.96 296.417 242.423 299.719 242.917V237.671C299.719 226.101 297.343 217.307 292.622 211.229C287.932 205.089 280.25 201.942 269.574 201.942C264.051 201.942 259.33 202.837 255.443 204.287C251.463 205.984 248.346 208.391 246.001 211.507C243.656 214.716 241.99 218.387 240.941 222.645C239.861 226.934 239.337 231.871 239.337 237.64V277.288C239.337 280.374 239.861 282.657 240.17 285.249C241.25 285.125 242.299 285.125 243.379 284.632C245.168 284.138 246.927 282.688 249.056 283.984C250.753 285.125 251.555 285.619 248.408 287.409C246.032 288.55 243.317 289.044 240.633 289.692C240.787 290.525 240.756 291.666 240.941 292.345C241.99 296.696 243.656 300.552 246.001 303.73C248.346 306.939 251.463 309.408 255.443 311.074C259.33 312.709 264.051 313.542 269.574 313.542C274.974 313.542 279.664 312.709 283.613 310.95C287.531 309.377 290.679 306.847 292.962 303.73C295.214 300.429 297.004 296.572 298.084 292.345C299.163 287.995 299.688 282.935 299.688 277.288V247.822C295.862 246.095 291.018 244.336 290 244.459ZM246.804 271.827C246.063 272.475 245.415 273.154 244.335 274.295C241.466 273.586 240.17 272.784 243.101 271.457C246.248 270.315 248.84 269.822 246.804 271.827ZM284.045 281.207C284.045 287.717 283.057 292.53 280.929 295.801C278.861 299.102 275.066 300.738 269.574 300.738C264.051 300.738 260.256 299.102 258.158 295.801C256.029 292.561 254.98 287.717 254.98 281.207V279.325C253.993 280.343 252.512 281.546 249.704 282.41C248.13 282.904 246.927 282.41 247.081 281.978C247.884 280.713 249.303 279.325 252.419 278.615C253.283 278.615 254.301 278.43 254.98 278.43V233.66C254.98 227.335 255.998 222.707 258.158 219.498C260.225 216.382 263.959 214.747 269.574 214.747C275.066 214.747 278.892 216.382 280.929 219.498C283.027 222.707 284.045 227.335 284.045 233.66V281.207ZM292.221 261.028C293.857 258.868 288.827 256.462 287.716 254.024C287.439 253.006 287.285 251.864 287.501 251.186C287.871 250.63 289.475 250.106 291.573 250.63C297.497 252.605 297.713 259.886 292.221 261.028Z"
        fill="#FEFEFE" />
  <path d="M368.123 258.004C366.18 257.295 369.08 257.171 371.764 256.493V237.64C371.764 226.07 369.388 217.277 364.668 211.198C359.947 205.058 352.264 201.911 341.62 201.911C336.097 201.911 331.376 202.806 327.457 204.256C323.539 205.953 320.453 208.36 318.078 211.476C315.794 214.685 314.128 218.357 313.048 222.614C311.999 226.903 311.475 231.84 311.475 237.61V277.257C311.475 283.089 311.999 288.056 313.048 292.314C314.128 296.665 315.794 300.522 318.078 303.7C320.453 306.909 323.539 309.377 327.457 311.043C331.376 312.678 336.097 313.511 341.62 313.511C347.081 313.511 351.74 312.678 355.72 310.92C359.639 309.346 362.724 306.816 365.007 303.7C367.383 300.398 369.08 296.541 370.129 292.314C371.209 287.964 371.795 282.904 371.795 277.257V259.732C370.623 259.177 369.481 258.436 368.123 258.004ZM356.152 257.881V267.754C357.17 268.587 358.034 269.513 358.188 270.284C357.355 270.038 356.862 270.038 356.152 269.852V281.176C356.152 287.686 355.072 292.5 353.005 295.77C350.907 299.072 347.112 300.707 341.62 300.707C336.097 300.707 332.363 299.072 330.173 295.77C328.136 292.53 327.087 287.686 327.087 281.176V233.629C327.087 227.304 328.105 222.676 330.173 219.467C332.24 216.351 336.097 214.716 341.62 214.716C347.112 214.716 350.968 216.351 353.005 219.467C355.103 222.676 356.152 227.304 356.152 233.629V255.197C358.343 255.012 360.595 255.32 362.662 254.703C363.619 257.819 365.532 260.01 356.152 257.881Z"
        fill="#FEFEFE" />
  <path d="M432.362 264.947C430.017 264.113 434.645 264.052 437.422 263.188C438.009 264.144 438.934 265.162 440.138 266.088V203.053H424.525V261.861C425.235 261.738 426.099 261.923 426.839 261.738C427.58 264.083 428.814 265.903 424.525 265.533V270.655L422.304 265.224C421.532 265.039 421.039 265.039 420.02 264.854C417.367 264.36 414.312 264.021 413.695 265.224C413.14 265.872 411.721 266.921 416.349 267.507C417.583 267.754 419.187 268.279 418.817 268.587C412.677 270.932 421.748 274.388 422.365 277.196C419.311 276.548 416.873 276.054 414.868 275.499L429.061 312.493H440.138V268.248C437.268 267.168 434.985 265.903 432.362 264.947Z"
        fill="#FEFEFE" />
  <path d="M399.719 280.189C401.354 278.09 396.355 275.746 395.214 273.246C394.967 272.166 394.844 271.148 395.029 270.346C395.399 269.852 396.973 269.328 399.132 269.852C400.397 270.284 400.367 271.488 401.107 272.321V264.545C399.41 263.99 397.96 263.589 397.497 263.712C395.646 263.774 394.134 263.897 392.869 263.003C392.098 262.17 390.678 261.429 391.912 260.781C392.992 260.072 395.152 260.596 397.374 260.781C398.608 260.966 399.873 261.213 401.138 261.337V239.646L409.87 262.355C413.665 262.91 417.367 262.478 421.07 262.108L397.189 203.053H385.433V312.555H401.107V278.553C400.49 279.047 400.675 280.127 399.719 280.189Z"
        fill="#FEFEFE" />
</svg>
