<svg xmlns="http://www.w3.org/2000/svg" width="10" height="20" fill="none" viewBox="0 0 10 20">
  <path fill="#FEFEFE" d="M3.421 0c.282 0 .511.366.511.817 0 .451-.229.817-.51.817-.283 0-.511-.366-.511-.817 0-.451.228-.817.51-.817ZM2.35.255c.17 0 .306.229.306.511 0 .282-.137.51-.306.51-.17 0-.306-.228-.306-.51 0-.282.137-.51.306-.51Zm-.868.256c.17 0 .306.183.306.408 0 .226-.137.409-.306.409-.17 0-.306-.183-.306-.409 0-.225.137-.408.306-.408ZM.766.97c.17 0 .306.182.306.408 0 .225-.137.408-.306.408-.17 0-.306-.183-.306-.408C.46 1.153.597.97.766.97Zm-.562.714c.113 0 .205.137.205.307 0 .169-.092.306-.205.306C.091 2.297 0 2.16 0 1.991c0-.17.091-.307.204-.307Zm1.073.153C3.115.92 4.39 2.616 2.91 4.392c-1.022 1.225 1.865 3.174 0 3.574-1.43.307-.982-1.553-1.43-2.349-1.838-3.268-.204-3.779-.204-3.779Z"/>
  <path fill="#2463EB" d="M6.51 6c-.28 0-.51.366-.51.817 0 .451.229.817.51.817.283 0 .511-.366.511-.817 0-.451-.228-.817-.51-.817Zm1.073.255c-.17 0-.306.229-.306.511 0 .282.137.51.306.51.17 0 .306-.228.306-.51 0-.282-.137-.51-.306-.51Zm.868.256c-.17 0-.306.183-.306.408 0 .226.137.409.306.409.17 0 .306-.183.306-.409 0-.225-.137-.408-.306-.408Zm.715.46c-.17 0-.306.182-.306.408 0 .225.137.408.306.408.17 0 .306-.183.306-.408 0-.226-.137-.409-.306-.409Zm.562.714c-.113 0-.205.137-.205.307 0 .169.092.306.205.306.113 0 .204-.137.204-.306 0-.17-.091-.307-.204-.307Zm-1.073.153c-1.838-.919-3.113.778-1.634 2.554 1.022 1.225-1.865 3.175 0 3.574 1.43.307.982-1.553 1.43-2.349 1.838-3.268.204-3.779.204-3.779Z"/>
  <path fill="#FEFEFE" d="M4.421 12c.282 0 .511.366.511.817 0 .451-.229.817-.51.817-.283 0-.511-.366-.511-.817 0-.451.228-.817.51-.817Zm-1.072.255c.17 0 .306.229.306.511 0 .282-.137.51-.306.51-.17 0-.306-.228-.306-.51 0-.282.137-.51.306-.51Zm-.868.256c.17 0 .306.183.306.408 0 .226-.137.409-.306.409-.17 0-.306-.183-.306-.409 0-.225.137-.408.306-.408Zm-.715.46c.17 0 .306.182.306.408 0 .225-.137.408-.306.408-.17 0-.306-.183-.306-.408 0-.226.137-.409.306-.409Zm-.562.714c.113 0 .205.137.205.307 0 .169-.092.306-.205.306-.113 0-.204-.137-.204-.306 0-.17.091-.307.204-.307Zm1.073.153c1.838-.919 3.113.778 1.634 2.554-1.022 1.225 1.865 3.175 0 3.574-1.43.307-.982-1.553-1.43-2.349-1.838-3.268-.204-3.779-.204-3.779Z"/>
</svg>
